<svg width="200" height="200" viewBox="0 0 200 200" fill="none" xmlns="http://www.w3.org/2000/svg">
<path d="M158.333 0H41.6667C18.6583 0 0 18.6583 0 41.6667V158.333C0 181.342 18.6583 200 41.6667 200H158.333C181.35 200 200 181.342 200 158.333V41.6667C200 18.6583 181.35 0 158.333 0ZM157.175 76.975C158.917 115.45 130.225 158.35 79.425 158.35C63.975 158.35 49.6 153.825 37.4917 146.058C52.0083 147.767 66.4917 143.742 77.9917 134.733C66.0167 134.508 55.9167 126.6 52.4417 115.733C56.7333 116.55 60.95 116.308 64.7917 115.267C51.6333 112.625 42.5583 100.775 42.85 88.1C46.5333 90.15 50.7583 91.3833 55.2333 91.525C43.0583 83.3833 39.6083 67.3 46.7667 55C60.2583 71.55 80.4167 82.4417 103.15 83.5833C99.1583 66.475 112.15 50 129.808 50C137.667 50 144.783 53.3167 149.767 58.6417C156 57.4167 161.858 55.1417 167.15 52.0083C165.1 58.4 160.767 63.7583 155.125 67.1417C160.658 66.475 165.933 65.0083 170.833 62.8333C167.175 68.3 162.533 73.1167 157.175 76.975Z" fill="black"/>
</svg>
