<svg width="200" height="200" viewBox="0 0 200 200" fill="none" xmlns="http://www.w3.org/2000/svg">
<path d="M158.333 0H41.6667C18.6583 0 0 18.6583 0 41.6667V158.333C0 181.342 18.6583 200 41.6667 200H158.333C181.35 200 200 181.342 200 158.333V41.6667C200 18.6583 181.35 0 158.333 0ZM133.333 58.3333H117.3C112.175 58.3333 108.333 60.4333 108.333 65.7417V75H133.333L131.35 100H108.333V166.667H83.3333V100H66.6667V75H83.3333V58.975C83.3333 42.125 92.2 33.3333 112.175 33.3333H133.333V58.3333Z" fill="black"/>
</svg>
