<svg width="200" height="200" viewBox="0 0 200 200" fill="none" xmlns="http://www.w3.org/2000/svg">
<path d="M126.942 45.7333C119.917 45.4167 117.8 45.35 100 45.35C82.2 45.35 80.0917 45.4167 73.0667 45.7333C54.9833 46.5583 46.5583 55.125 45.7417 73.0583C45.4167 80.0917 45.3417 82.2 45.3417 100C45.3417 117.8 45.4167 119.908 45.7333 126.942C46.5583 144.842 54.95 153.442 73.0583 154.267C80.0833 154.583 82.2 154.658 100 154.658C117.808 154.658 119.917 154.592 126.942 154.275C145.025 153.45 153.442 144.867 154.267 126.95C154.583 119.917 154.65 117.808 154.65 100.008C154.65 82.2083 154.583 80.1 154.267 73.075C153.442 55.1333 145.008 46.5583 126.942 45.7333ZM100 134.233C81.0917 134.233 65.7667 118.908 65.7667 100C65.7667 81.0917 81.1 65.7667 100 65.7667C118.9 65.7667 134.233 81.0917 134.233 100C134.233 118.908 118.908 134.233 100 134.233ZM135.592 72.4167C131.175 72.4167 127.592 68.8333 127.592 64.4167C127.592 60 131.175 56.4167 135.592 56.4167C140.008 56.4167 143.592 60 143.592 64.4167C143.592 68.8333 140.008 72.4167 135.592 72.4167ZM122.225 100C122.225 112.275 112.275 122.225 100 122.225C87.725 122.225 77.775 112.275 77.775 100C77.775 87.725 87.725 77.775 100 77.775C112.275 77.775 122.225 87.725 122.225 100ZM158.333 0H41.6667C18.6583 0 0 18.6583 0 41.6667V158.333C0 181.342 18.6583 200 41.6667 200H158.333C181.35 200 200 181.342 200 158.333V41.6667C200 18.6583 181.35 0 158.333 0V0ZM166.267 127.483C165.167 151.725 151.675 165.158 127.492 166.267C120.375 166.592 118.108 166.667 100 166.667C81.8917 166.667 79.6333 166.592 72.5167 166.267C48.2833 165.158 34.85 151.7 33.7333 127.483C33.4083 120.375 33.3333 118.108 33.3333 100C33.3333 81.9 33.4083 79.625 33.7333 72.5167C34.85 48.2833 48.3 34.8417 72.5167 33.7417C79.6333 33.4083 81.8917 33.3333 100 33.3333C118.108 33.3333 120.375 33.4083 127.492 33.7333C151.725 34.8417 165.183 48.325 166.267 72.5083C166.592 79.625 166.667 81.9 166.667 100C166.667 118.108 166.592 120.375 166.267 127.483Z" fill="black"/>
</svg>
